Coordinates
version=1
nRows=6
nColumns=34
inDegrees=yes

Units are S.I. units (second, meters, Newtons, ...)
If the header above contains a line with 'inDegrees', this indicates whether rotational values are in degrees (yes) or radians (no).

endheader
time	pelvis_tilt	pelvis_list	pelvis_rotation	pelvis_tx	pelvis_ty	pelvis_tz	hip_flexion_r	hip_adduction_r	hip_rotation_r	knee_angle_r	ankle_angle_r	subtalar_angle_r	mtp_angle_r	hip_flexion_l	hip_adduction_l	hip_rotation_l	knee_angle_l	ankle_angle_l	subtalar_angle_l	mtp_angle_l	lumbar_extension	lumbar_bending	lumbar_rotation	arm_flex_r	arm_add_r	arm_rot_r	elbow_flex_r	pro_sup_r	arm_flex_l	arm_add_l	arm_rot_l	elbow_flex_l	pro_sup_l
      0.00000000	     46.55462666	    -21.60265938	    -14.77909989	      0.95193591	      1.04397043	     -0.57191953	    -30.00000025	      3.54308947	     -7.58652644	     35.80503222	      6.81697048	    -35.00000000	      0.00000000	    -30.00000025	      0.54043518	      2.95279479	     33.20860355	     -3.74249031	    -35.00000000	      0.00000000	    -87.87981296	      1.49811904	      2.01167719	     26.30499786	     -0.62452598	      6.01561673	     25.57817276	     86.82929676	     24.96861604	      1.02969417	      0.71403579	     33.01227426	     98.55359997
      0.01666670	     46.39981720	    -22.61847967	    -13.11195825	      0.94978004	      1.04177656	     -0.57281635	    -30.00000025	      6.53834988	     -6.94592617	     34.79351127	      6.53816680	    -35.00000000	      0.00000000	    -25.49609801	     -1.84126846	      2.42562618	     44.01951622	     -0.15619783	    -35.00000000	      0.00000000	    -90.00000018	      3.89159568	      1.90737995	     27.81096128	      0.36108452	      3.24304518	     28.24157202	     87.86271773	     25.27885541	      1.68577045	     -3.55530968	     37.05472822	     98.09318897
      0.03333330	     44.21047804	    -22.78560038	    -11.94208918	      0.95543440	      1.04526583	     -0.57212681	    -30.00000025	      8.40796742	     -9.38008350	     30.47030684	      4.10076122	    -35.00000000	      0.00000000	    -21.96020246	     -3.68146687	      2.54744759	     47.43476808	      0.01032051	    -35.00000000	      0.00000000	    -90.00000018	      5.72360696	      3.25054311	     27.74787982	      1.08375735	     -2.29885062	     30.22143022	     91.17831839	     26.92127685	      3.39719802	     -8.45098914	     36.53439638	     98.52979141
      0.05000000	     43.78647934	    -23.09140325	    -10.82580503	      0.95887233	      1.04717694	     -0.57130122	    -30.00000025	      9.40544677	     -9.99239282	     29.30533075	      2.43354893	    -35.00000000	      0.00000000	    -21.34018121	     -4.54977358	      3.42917361	     47.86386712	     -0.49048781	    -35.00000000	      0.00000000	    -90.00000018	      6.86187809	      4.63830924	     26.67084056	      2.34493060	    -13.34882736	     33.48893272	    115.80207375	     27.51263264	      4.34357001	     -9.60941443	     36.01432719	    106.01131526
      0.06666670	     42.97045959	    -24.31777114	     -9.40862791	      0.96261035	      1.05015751	     -0.57143574	    -30.00000025	     11.75035047	    -10.16987291	     27.84879585	      0.96740932	    -35.00000000	      0.00000000	    -20.10850637	     -6.65585402	      4.38131200	     49.24000099	     -0.40341601	    -35.00000000	      0.00000000	    -90.00000018	      8.94142154	      5.56059498	     27.81570833	      2.71035790	    -13.96171705	     31.86412480	    116.85733762	     27.09282552	      4.56837745	    -10.48784121	     36.80633844	    106.25065885
      0.08333330	     28.57912786	    -32.81453269	     -5.08746066	      0.98246123	      1.04150885	     -0.56014402	    -30.00000025	     30.00000025	      0.94228569	      0.00000000	    -11.35724721	    -35.00000000	      0.00000000	      0.45904628	    -27.44790307	      2.30300010	     60.35492539	     30.15293180	     18.01915573	      0.00000000	    -87.80301598	     19.45503112	     16.92438321	     27.11661640	      2.73090454	    -14.23485487	     37.60657846	    119.74817918	     25.49352553	      5.11296558	    -12.49394331	     43.79421004	    109.71460376
